# xmcd CD database file
#
# Track frame offsets:
#	150
#	13812
#	31553
#	44979
#	71174
#	93938
#	109808
#	136102
#	159820
#	176228
#	189642
#	201590
#	215704
#	229611
#	245032
#	259837
#
# Disc length: 3685 seconds
#
# Revision: 0
# Processed by: cddbd v1.5.2PL0 Copyright (c) Steve Scherf et al.
# Submitted via: CDex 1.51
#
DISCID=ec0e6310
DTITLE=B.B. King - B.B.King - Double Legend CD2
DYEAR=2005
DGENRE=Blues
TTITLE0=You Upset Me Baby
TTITLE1=Rock Me Baby
TTITLE2=Blues At Midnight
TTITLE3=Watch Yourself
TTITLE4=Everyday I Have The Blues
TTITLE5=The Letter
TTITLE6=Guess Whom
TTITLE7=Five Long Years
TTITLE8=The Other Night Blues
TTITLE9=Army Of The Lord
TTITLE10=I Never Heard A Man
TTITLE11=Save A Seat For Me
TTITLE12=Servant's Prayer
TTITLE13=Take My Hand Precious Lord
TTITLE14=B.B. Boogie
TTITLE15=Lucile
EXTD=YEAR: 2005
EXTT0=
EXTT1=
EXTT2=
EXTT3=
EXTT4=
EXTT5=
EXTT6=
EXTT7=
EXTT8=
EXTT9=
EXTT10=
EXTT11=
EXTT12=
EXTT13=
EXTT14=
EXTT15=
PLAYORDER=
